# AST/ASF file generated using VICON BodyLanguage
# -----------------------------------------------
:version 1.10
:name VICON
:units
  mass 1.0
  length 0.45
  angle deg
:documentation
   .ast/.asf automatically generated from VICON data using
   VICON BodyBuilder and BodyLanguage model FoxedUp or BRILLIANT.MOD
:root
   order TX TY TZ RX RY RZ
   axis XYZ
   position 0 0 0  
   orientation 0 0 0 
:bonedata
  begin
     id 1 
     name lhipjoint
     direction 0.584852 -0.759097 0.285867 
     length 2.43633 
     axis 0 0 0  XYZ
  end
  begin
     id 2 
     name lfemur
     direction 0.34202 -0.939693 0  
     length 7.14704  
     axis 0 0 20  XYZ
    dof rx ry rz
    limits (-160.0 20.0)
           (-70.0 70.0)
           (-60.0 70.0)
  end
  begin
     id 3 
     name ltibia
     direction 0.342022 -0.939692 0   
     length 7.68483   
     axis 0 0 20   XYZ
    dof rx
    limits (-10.0 170.0)
  end
  begin
     id 4 
     name lfoot
     direction 0.0999605 -0.274639 0.956337   
     length 2.40452   
     axis -90 7.62852e-016 20   XYZ
    dof rx rz
    limits (-45.0 90.0)
           (-70.0 20.0)
  end
  begin
     id 5 
     name ltoes
     direction 1.53468e-011 -4.21881e-011 1   
     length 1.19837   
     axis -90 7.62852e-016 20   XYZ
    dof rx
    limits (-90.0 20.0)
  end
  begin
     id 6 
     name rhipjoint
     direction -0.569886 -0.769002 0.289597   
     length 2.40495  
     axis 0 0 0  XYZ 
  end
  begin
     id 7 
     name rfemur
     direction -0.34202 -0.939693 0   
     length 7.45086   
     axis 0 0 -20   XYZ
    dof rx ry rz
    limits (-160.0 20.0)
           (-70.0 70.0)
           (-70.0 60.0)
  end
  begin
     id 8 
     name rtibia
     direction -0.34202 -0.939693 0   
     length 7.76831   
     axis 0 0 -20   XYZ
    dof rx
    limits (-10.0 170.0)
 end
 begin
     id 9 
     name rfoot
     direction -0.0798572 -0.219406 0.97236   
     length 2.35911  
     axis -90 -7.62852e-016 -20   XYZ
    dof rx rz
    limits (-45.0 90.0)
           (-20.0 70.0)
  end
  begin
     id 10 
     name rtoes
     direction -1.53469e-011 -4.21728e-011 1   
     length 1.18261   
     axis -90 -7.62852e-016 -20   XYZ
    dof rx
    limits (-90.0 20.0)
  end
  begin
     id 11 
     name lowerback
     direction 0.0242088 0.999437 0.0232389   
     length 2.1561   
     axis 0 0 0   XYZ
    dof rx ry rz
    limits (-20.0 45.0)
           (-30.0 30.0)
           (-30.0 30.0)
  end
  begin
     id 12 
     name upperback
     direction -0.0356893 0.999013 -0.0264323   
     length 2.14431   
     axis 0 0 0   XYZ
    dof rx ry rz
    limits (-20.0 45.0)
           (-30.0 30.0)
           (-30.0 30.0)
  end
  begin
     id 13 
     name thorax
     direction -0.0472163 0.998194 -0.0371284   
     length 2.16169   
     axis 0 0 0   XYZ
    dof rx ry rz
    limits (-20.0 45.0)
           (-30.0 30.0)
           (-30.0 30.0)
  end
  begin
     id 14 
     name lowerneck
     direction 0.00863244 0.999921 0.00911972   
     length 1.58651   
     axis 0 0 0   XYZ
    dof rx ry rz
    limits (-20.0 45.0)
           (-30.0 30.0)
           (-30.0 30.0)
  end
  begin
     id 15 
     name upperneck
     direction 0.149523 0.979068 -0.138086   
     length 1.57486   
     axis 0 0 0   XYZ
    dof rx ry rz
    limits (-20.0 45.0)
           (-30.0 30.0)
           (-30.0 30.0)
  end
  begin
     id 16
     name head
     direction 0.0445219 0.997708 -0.0509576  
     length 1.6019  
     axis 0 0 0   XYZ
    dof rx ry rz
    limits (-20.0 45.0)
           (-30.0 30.0)
           (-30.0 30.0)
  end
  begin
     id 17 
     name lclavicle
     direction 0.911271 0.381667 -0.154644  
     length 3.80848  
     axis 0 0 0   XYZ
    dof ry rz
    limits (-20.0 10.0)
           (0.0 20.0)
  end
  begin
     id 18 
     name lhumerus
     direction 1 -4.49003e-011 2.1308e-027   
     length 5.19069   
     axis 180 -30 -90   XYZ
    dof rx ry rz
    limits (-60.0 90.0)
           (-90.0 90.0)
           (-90.0 90.0)
  end
  begin
     id 19
     name lradius
     direction 1 -4.48914e-011 4.01554e-027   
     length 3.30016   
     axis 180 -30 -90   XYZ
    dof rx
    limits (-10.0 170.0)
  end
  begin
     id 20
     name lwrist
     direction 1 -4.49003e-011 1.1934e-026   
     length 1.65008   
     axis -8.46377e-015 90 90   XYZ
    dof ry
    limits (-180.0 0.0)
 end
  begin
     id 21 
     name lhand
     direction 1 -4.49034e-011 2.38659e-026   
     length 0.707698   
     axis -1.52313e-014 90 90   XYZ
    dof rx rz
    limits (-90.0 90.0)
           (-45.0 45.0)
  end
  begin
     id 22 
     name lfingers
     direction 1 -4.48691e-011 4.77775e-026   
     length 0.570564   
     axis -3.04623e-014 90 90   XYZ
    dof rx
    limits (0.0 90.0)
  end
  begin
     id 23
     name lthumb
     direction 0.707107 -6.34832e-011 0.707107   
     length 0.819219   
     axis -90 45 -1.62303e-014   XYZ
    dof rx rz
    limits (-45.0 45.0)
           (-45.0 45.0)
  end
  begin
     id 24 
     name rclavicle
     direction -0.815579 0.573708 -0.0754329   
     length 3.54371  
     axis 0 0 0   XYZ 
    dof ry rz
    limits (-10.0 20.0)
           (-20.0 0.0)
  end
  begin
     id 25 
     name rhumerus
     direction -1 -4.48956e-011 3.05351e-028  
     length 5.23924   
     axis 180 30 90   XYZ
    dof rx ry rz
    limits (-90.0 60.0)
           (-90.0 90.0)
           (-90.0 90.0)
  end
  begin
     id 26 
     name rradius
     direction -1 -4.49013e-011 3.53849e-027   
     length 3.32953   
     axis 180 30 90   XYZ
    dof rx
    limits (-10.0 170.0)
  end
  begin
     id 27 
     name rwrist
     direction -1 -4.48901e-011 1.19374e-026   
     length 1.66477   
     axis -8.46377e-015 -90 -90   XYZ
    dof ry
    limits (-180.0 0.0)
  end
  begin
     id 28
     name rhand
     direction -1 -4.48877e-011 2.38764e-026   
     length 0.607414   
     axis -1.52313e-014 -90 -90   XYZ
    dof rx rz
    limits (-90.0 90.0)
           (-45.0 45.0)
  end
  begin
     id 29
     name rfingers
     direction -1 -4.48882e-011 4.77521e-026   
     length 0.489712   
     axis -3.04623e-014 -90 -90   XYZ
    dof rx
    limits (0.0 90.0)
  end
  begin
     id 30
     name rthumb
     direction -0.707107 -6.34974e-011 0.707107   
     length 0.703132   
     axis -90 -45 1.62303e-014   XYZ
    dof rx rz
    limits (-45.0 45.0)
           (-45.0 45.0)
  end
:hierarchy
  begin
    root lhipjoint rhipjoint lowerback
    lhipjoint lfemur
    lfemur ltibia
    ltibia lfoot
    lfoot ltoes
    rhipjoint rfemur
    rfemur rtibia
    rtibia rfoot
    rfoot rtoes
    lowerback upperback
    upperback thorax
    thorax lowerneck lclavicle rclavicle
    lowerneck upperneck
    upperneck head
    lclavicle lhumerus
    lhumerus lradius
    lradius lwrist
    lwrist lhand lthumb
    lhand lfingers
    rclavicle rhumerus
    rhumerus rradius
    rradius rwrist
    rwrist rhand rthumb
    rhand rfingers
  end

#!OML:ASF E:\VariousWalksJay\Project 1\Capture day 1\Session 1\Actor2.ASF
:FULLY-SPECIFIED
:DEGREES
115
root 26.1366 16.6485 48.1204 177.271 -50.7221 -175.165
lowerback -3.54466 0.365305 6.48994
upperback 4.5544 0.0624369 -1.61705
thorax 6.79906 0.370532 -5.35349
lowerneck -8.37416 2.1758 4.19193
upperneck 6.8245 1.68853 6.18014
head 3.71417 1.15087 1.4092
rclavicle 2.54444e-014 -1.82882e-014
rhumerus -32.4303 -0.961329 -85.6373
rradius 33.7508
rwrist 0.222915
rhand -8.84204 -5.25108
rfingers 7.12502
rthumb 17.0985 -34.5187
lclavicle 2.54444e-014 -1.82882e-014
lhumerus -25.9648 -7.82622 80.8121
lradius 25.5207
lwrist 6.71467
lhand -5.64198 -10.1028
lfingers 7.12502
lthumb 20.1765 18.8694
rfemur -12.4275 -4.86473 22.5107
rtibia 33.045
rfoot -18.4526 -14.2405
rtoes -10.18
lfemur -10.1868 5.8483 -16.9193
ltibia 27.5669
lfoot -16.4853 6.35653
ltoes -16.3036
116
root 26.133 16.6475 48.1168 177.247 -50.6865 -175.169
lowerback -3.71505 0.425314 6.39405
upperback 4.64879 0.130235 -1.56448
thorax 7.00725 0.406661 -5.23846
lowerneck -8.38844 2.13008 4.20758
upperneck 6.78538 1.63306 6.13154
head 3.70412 1.12141 1.38634
rclavicle 2.5842e-015 2.06736e-014
rhumerus -32.3602 -1.07591 -85.5225
rradius 33.7285
rwrist 0.251804
rhand -9.01222 -5.1738
rfingers 7.12502
rthumb 16.9347 -34.4555
lclavicle 2.5842e-015 2.06736e-014
lhumerus -25.8403 -7.85465 80.8979
lradius 25.4539
lwrist 6.7141
lhand -5.64213 -10.0928
lfingers 7.12502
lthumb 20.1763 18.8795
rfemur -12.3787 -4.90513 22.5058
rtibia 33.0293
rfoot -18.4799 -14.1381
rtoes -9.89116
lfemur -10.1389 5.85181 -16.9134
ltibia 27.577
lfoot -16.5297 6.38822
ltoes -16.1932
117
root 26.1319 16.6477 48.113 177.184 -50.7146 -175.133
lowerback -3.64661 0.402179 6.43846
upperback 4.62877 0.102354 -1.58054
thorax 6.94291 0.392912 -5.28293
lowerneck -8.41465 2.1317 4.21378
upperneck 6.85147 1.62627 6.14352
head 3.73286 1.12102 1.39071
rclavicle -8.26944e-014 3.49861e-014
rhumerus -32.3926 -1.07394 -85.5612
rradius 33.6823
rwrist 0.212429
rhand -7.78595 -5.99338
rfingers 7.12502
rthumb 18.1148 -35.1698
lclavicle -8.26944e-014 3.49861e-014
lhumerus -25.9095 -7.85995 80.8546
lradius 25.4339
lwrist 6.73795
lhand -5.68131 -9.76071
lfingers 7.12502
lthumb 20.1387 19.2155
rfemur -12.3132 -4.87771 22.537
rtibia 33.0241
rfoot -18.7145 -14.0461
rtoes -8.71761
lfemur -10.1244 5.94061 -16.8928
ltibia 27.5878
lfoot -16.7004 6.07445
ltoes -16.3622
118
root 26.1311 16.6446 48.1076 177.15 -50.7896 -175.124
lowerback -3.55868 0.33633 6.46608
upperback 4.58166 0.0223172 -1.61213
thorax 6.83033 0.350835 -5.33882
lowerneck -8.44796 2.17535 4.12362
upperneck 6.95204 1.67469 6.25192
head 3.77331 1.15017 1.44867
rclavicle -4.64162e-014 3.97569e-015
rhumerus -32.4699 -1.04529 -85.6422
rradius 33.6204
rwrist 0.275467
rhand -6.92659 -6.46764
rfingers 7.12502
rthumb 18.9414 -35.5654
lclavicle -4.64162e-014 3.97569e-015
lhumerus -25.9893 -7.67274 80.7418
lradius 25.3394
lwrist 6.61354
lhand -5.6681 -9.85255
lfingers 7.12502
lthumb 20.1514 19.1223
rfemur -12.2624 -5.04618 22.5415
rtibia 33.027
rfoot -18.5831 -13.9564
rtoes -9.07992
lfemur -10.0917 5.88167 -16.8653
ltibia 27.6001
lfoot -16.7698 6.05205
ltoes -16.0467
119
root 26.1292 16.6448 48.1089 177.184 -50.7215 -175.152
lowerback -3.63274 0.381462 6.44467
upperback 4.61503 0.0771207 -1.60176
thorax 6.91671 0.380264 -5.31128
lowerneck -8.43341 2.17254 4.17476
upperneck 6.90898 1.6761 6.18485
head 3.75583 1.14829 1.41596
rclavicle 1.19271e-014 -2.94201e-014
rhumerus -32.427 -1.13759 -85.5793
rradius 33.591
rwrist 0.287495
rhand -7.00488 -6.38453
rfingers 7.12502
rthumb 18.8661 -35.4896
lclavicle 1.19271e-014 -2.94201e-014
lhumerus -25.9438 -7.73338 80.786
lradius 25.3193
lwrist 6.66591
lhand -5.53872 -10.0343
lfingers 7.12502
lthumb 20.2757 18.9274
rfemur -12.2841 -5.05679 22.5138
rtibia 33.0201
rfoot -18.6849 -13.8456
rtoes -8.59894
lfemur -10.0832 5.87405 -16.8936
ltibia 27.6044
lfoot -16.5281 6.40449
ltoes -16.1795
120
root 26.1282 16.6462 48.1059 177.167 -50.7662 -175.148
lowerback -3.57122 0.336696 6.47788
upperback 4.56659 0.023494 -1.63321
thorax 6.82191 0.352224 -5.36783
lowerneck -8.41951 2.17798 4.14538
upperneck 7.01493 1.6721 6.25268
head 3.79029 1.1507 1.44573
rclavicle -5.20816e-014 -3.97569e-016
rhumerus -32.5102 -1.12462 -85.6338
rradius 33.5732
rwrist 0.260987
rhand -7.09655 -6.31441
rfingers 7.12502
rthumb 18.778 -35.428
lclavicle -5.20816e-014 -3.97569e-016
lhumerus -26.0465 -7.64859 80.7107
lradius 25.2878
lwrist 6.64961
lhand -5.45231 -10.208
lfingers 7.12502
lthumb 20.3588 18.7449
rfemur -12.2486 -4.93572 22.5303
rtibia 33.0255
rfoot -18.6024 -14.0805
rtoes -9.23067
lfemur -10.0763 5.86097 -16.897
ltibia 27.6193
lfoot -16.5194 6.44708
ltoes -16.4829
121
root 26.1267 16.6468 48.103 177.146 -50.7817 -175.131
lowerback -3.54086 0.311015 6.51235
upperback 4.53431 -0.00814151 -1.65403
thorax 6.76567 0.336432 -5.41202
lowerneck -8.40605 2.18659 4.13819
upperneck 7.09062 1.67454 6.29422
head 3.81433 1.15501 1.46251
rclavicle 3.8763e-015 8.34896e-015
rhumerus -32.5731 -1.14485 -85.6715
rradius 33.5328
rwrist 0.309478
rhand -7.15997 -6.21452
rfingers 7.12502
rthumb 18.717 -35.334
lclavicle 3.8763e-015 8.34896e-015
lhumerus -26.1201 -7.60828 80.6553
lradius 25.2524
lwrist 6.66336
lhand -5.51275 -10.1538
lfingers 7.12502
lthumb 20.3007 18.8053
rfemur -12.2174 -4.85376 22.5543
rtibia 33.0218
rfoot -18.715 -14.1327
rtoes -8.98601
lfemur -10.056 5.87537 -16.8744
ltibia 27.6154
lfoot -16.5118 6.38811
ltoes -16.5012
122
root 26.1253 16.6432 48.1023 177.153 -50.767 -175.131
lowerback -3.61859 0.350561 6.49406
upperback 4.563 0.0389713 -1.64156
thorax 6.8481 0.362076 -5.3848
lowerneck -8.37273 2.15406 4.12689
upperneck 7.05806 1.63773 6.2908
head 3.79651 1.13492 1.45985
rclavicle -2.22639e-014 6.75868e-015
rhumerus -32.5595 -1.28369 -85.6013
rradius 33.4978
rwrist 0.36256
rhand -6.91983 -6.27223
rfingers 7.12502
rthumb 18.9479 -35.3693
lclavicle -2.22639e-014 6.75868e-015
lhumerus -26.0576 -7.62096 80.6884
lradius 25.1909
lwrist 6.62196
lhand -5.55324 -10.0404
lfingers 7.12502
lthumb 20.2618 18.9227
rfemur -12.1842 -5.0467 22.5363
rtibia 32.9273
rfoot -18.7126 -13.888
rtoes -8.46488
lfemur -10.0206 5.87064 -16.8856
ltibia 27.5303
lfoot -16.5003 6.44563
ltoes -16.4762
123
root 26.1243 16.6439 48.0965 177.149 -50.8445 -175.144
lowerback -3.6725 0.324916 6.41771
upperback 4.58731 0.00392226 -1.61987
thorax 6.89908 0.342542 -5.32222
lowerneck -8.4753 2.13763 4.0537
upperneck 7.17831 1.60593 6.32923
head 3.85934 1.12456 1.48842
rclavicle -1.99779e-014 1.31198e-014
rhumerus -32.5462 -1.31913 -85.5685
rradius 33.4615
rwrist 0.349205
rhand -9.95285 -4.49927
rfingers 7.12502
rthumb 16.029 -33.8562
lclavicle -1.99779e-014 1.31198e-014
lhumerus -26.0218 -7.49854 80.6801
lradius 25.1148
lwrist 6.55396
lhand -5.48103 -10.1417
lfingers 7.12502
lthumb 20.3312 18.8141
rfemur -12.107 -5.03533 22.5407
rtibia 32.8513
rfoot -18.5074 -14.1147
rtoes -9.59662
lfemur -9.94202 5.78258 -16.8652
ltibia 27.4583
lfoot -16.5534 6.3661
ltoes -16.0653
124
root 26.1221 16.6596 48.0934 177.093 -50.8122 -175.083
lowerback -3.75348 0.348957 6.42064
upperback 4.63755 0.0257424 -1.58331
thorax 7.00319 0.356989 -5.28396
lowerneck -8.44118 2.12441 4.08772
upperneck 7.13581 1.59693 6.2643
head 3.83799 1.11692 1.45839
rclavicle -5.48646e-014 6.75868e-015
rhumerus -32.4621 -1.36034 -85.5086
rradius 33.3981
rwrist 0.34773
rhand -6.63975 -6.47112
rfingers 7.12502
rthumb 19.2173 -35.5416
lclavicle -5.48646e-014 6.75868e-015
lhumerus -25.9416 -7.48511 80.7161
lradius 25.0621
lwrist 6.53317
lhand -5.52469 -10.1217
lfingers 7.12502
lthumb 20.2892 18.8386
rfemur -11.96 -3.75543 22.6922
rtibia 32.7216
rfoot -18.9672 -15.2654
rtoes -9.20679
lfemur -9.86619 5.84754 -16.8164
ltibia 27.3441
lfoot -16.4392 6.36078
ltoes -16.3045
125
root 26.121 16.6568 48.0907 177.07 -50.848 -175.066
lowerback -3.72316 0.32875 6.43235
upperback 4.60863 0.00212906 -1.59294
thorax 6.95125 0.343947 -5.30262
lowerneck -8.52881 2.10858 4.0404
upperneck 7.30494 1.55794 6.31431
head 3.91579 1.10498 1.48661
rclavicle -3.06128e-014 1.15295e-014
rhumerus -32.5271 -1.39459 -85.5243
rradius 33.3606
rwrist 0.360088
rhand -7.13357 -6.20593
rfingers 7.12502
rthumb 18.7424 -35.323
lclavicle -3.06128e-014 1.15295e-014
lhumerus -25.9892 -7.38042 80.668
lradius 25.0127
lwrist 6.46068
lhand -5.50895 -10.1062
lfingers 7.12502
lthumb 20.3043 18.8524
rfemur -11.9072 -3.98151 22.6927
rtibia 32.643
rfoot -18.7795 -15.2124
rtoes -9.91995
lfemur -9.79243 5.78571 -16.7934
ltibia 27.2603
lfoot -16.483 6.32619
ltoes -16.0892
126
root 26.1195 16.6595 48.089 177.07 -50.8218 -175.067
lowerback -3.6679 0.308359 6.49734
upperback 4.56055 -0.020755 -1.637
thorax 6.8654 0.33344 -5.3878
lowerneck -8.50292 2.12458 4.05697
upperneck 7.38777 1.56808 6.34543
head 3.94022 1.11319 1.49613
rclavicle 2.45499e-014 -2.0276e-014
rhumerus -32.5948 -1.39028 -85.5955
rradius 33.2947
rwrist 0.449769
rhand -7.44486 -5.98956
rfingers 7.12502
rthumb 18.4429 -35.1353
lclavicle 2.45499e-014 -2.0276e-014
lhumerus -26.0612 -7.25406 80.5621
lradius 24.955
lwrist 6.38662
lhand -5.53093 -10.1332
lfingers 7.12502
lthumb 20.2832 18.8277
rfemur -11.8615 -3.72039 22.7122
rtibia 32.5754
rfoot -18.6298 -15.5435
rtoes -10.8826
lfemur -9.74944 5.78954 -16.7958
ltibia 27.1957
lfoot -16.4639 6.38071
ltoes -16.067
127
root 26.1189 16.6571 48.0894 177.089 -50.8273 -175.078
lowerback -3.54693 0.27911 6.58336
upperback 4.47805 -0.0502008 -1.69013
thorax 6.7038 0.317415 -5.49423
lowerneck -8.53041 2.14784 3.94784
upperneck 7.52189 1.58492 6.48656
head 3.99215 1.12814 1.56789
rclavicle -4.99943e-014 1.98785e-014
rhumerus -32.6947 -1.3891 -85.6626
rradius 33.2313
rwrist 0.513915
rhand -7.70938 -5.85754
rfingers 7.12502
rthumb 18.1885 -35.0272
lclavicle -4.99943e-014 1.98785e-014
lhumerus -26.1997 -7.21447 80.4848
lradius 24.9532
lwrist 6.37898
lhand -5.49582 -10.1794
lfingers 7.12502
lthumb 20.317 18.7779
rfemur -11.8956 -4.00246 22.6807
rtibia 32.6099
rfoot -18.7902 -15.157
rtoes -9.96887
lfemur -9.79809 5.82197 -16.8174
ltibia 27.2365
lfoot -16.4031 6.40844
ltoes -16.2756
